<?xml version="1.0" encoding="utf-8"?>
<!-- Generator: Adobe Illustrator 24.0.0, SVG Export Plug-In . SVG Version: 6.00 Build 0)  -->
<svg version="1.1" id="Layer_1" xmlns="http://www.w3.org/2000/svg" xmlns:xlink="http://www.w3.org/1999/xlink" x="0px" y="0px"
	 viewBox="0 0 244.8 232.2" style="enable-background:new 0 0 244.8 232.2;" xml:space="preserve">
<style type="text/css">
	.st0{fill:#FFFFFF;}
</style>
<title>Asset 2</title>
<g id="Layer_2_1_">
	<g id="Layer_1-2">
		<path class="st0" d="M0,49c5-5.7,9.9-11.5,15-17.1c1.4-1.4,1.9-3.4,1.3-5.3c-1.8-6.5-3.4-13-4.9-19.5c-0.1-1.2,0-2.4,0.2-3.5
			c1.1,0,2.2,0.1,3.3,0.4c6.5,2.7,12.9,5.4,19.3,8.3c1.3,0.7,2.8,0.6,3.9-0.3c6-3.8,12-7.6,18-11.3c0.9-0.5,2.5-1,3.1-0.6
			s0.9,2.1,0.8,3.2c-0.6,7.2-1.4,14.4-2,21.7c0.1,1,0.6,2,1.4,2.7c5.4,4.6,10.9,9.1,16.3,13.7c0.7,0.8,1.4,1.8,1.8,2.8
			c-0.9,0.8-1.9,1.4-3,1.8c-6.9,1.7-13.8,3.2-20.7,4.7c-1.3,0.2-2.3,1.1-2.6,2.3c-2.6,6.5-5.2,13-7.9,19.5c-0.6,1-1.4,2-2.2,2.8
			c-1-0.6-1.9-1.4-2.7-2.4c-3.6-5.8-7.1-11.7-10.4-17.7c-0.8-1.6-2.4-2.5-4.1-2.5c-7-0.4-13.9-0.9-20.8-1.4C2,51.2,1,50.9,0,50.4V49
			z"/>
		<path class="st0" d="M176.2,78.7c2,2.3,4.1,4.5,5.9,6.8c0.4,0.8,0.6,1.7,0.5,2.6c-0.4,4.6-1.1,9.2-1.1,13.7
			c0.1,2.5,1.5,4.9,2.4,7.6c-2.6,2.3-5.5,4.8-8.2,7.4c-14.5,14.1-25.1,30.9-33.5,49.1c-9.3,20.1-15.5,41.3-20.1,62.9
			c-0.1,0.5,0,1.1-0.3,1.4c-0.8,0.8-1.7,2-2.7,2.1c-1.6,0.1-2.3-1.2-2.3-2.8c0-4.4,0-8.8,0.1-13.2c0.6-16.4,2.7-32.7,6.6-48.7
			c4.1-17.4,10.7-34.1,19.6-49.5C151.7,103,162.9,89.7,176.2,78.7z"/>
		<path class="st0" d="M80.4,61.2c2.4,7.8,4.9,15.3,7.1,23c5.6,20.2,9.6,40.8,12.1,61.6c3,25.8,4.5,51.8,4.2,77.8
			c0,0.5,0.2,1.1,0,1.4c-0.5,0.7-1,1.4-1.6,2.1c-0.6-0.6-1.6-1.2-1.7-1.9c-0.9-4.9-1.6-9.9-2.4-14.9c-4.9-29.2-10.9-58.1-20.5-86.1
			c-5-14.6-10.9-28.7-19.5-41.6c-0.5-0.9-0.6-2-0.3-3c1.6-4.4,3.4-8.8,5.2-13.1c0.3-0.8,0.9-1.4,1.7-1.7
			C69.8,63.5,74.8,62.4,80.4,61.2z"/>
		<path class="st0" d="M197.1,97.8c0.8-5,1.8-10.2,2.6-15.5c0.1-1-0.3-2-0.9-2.8c-3.4-3.6-7.1-6.9-10.5-10.4
			c-0.7-0.8-1.6-2.2-1.4-2.9s1.8-1.4,2.9-1.6c4.7-0.8,9.4-1.5,14.2-2c1.4-0.1,2.7-1,3.2-2.3c2.1-4.5,4.3-8.9,6.6-13.3
			c0.4-0.8,1.4-1.8,2.1-1.8s1.7,1,2.1,1.8c2.3,4.4,4.5,8.8,6.6,13.3c0.5,1.3,1.7,2.3,3.2,2.3c5,0.6,9.9,1.4,14.9,2.2
			c0.8,0.1,2.1,0.8,2.2,1.4c0,1-0.3,1.9-1,2.6c-3.5,3.6-7.1,7.1-10.8,10.5c-1,0.9-1.5,2.3-1.1,3.6c0.9,4.8,1.8,9.7,2.5,14.6
			c0.1,0.9,0,2.4-0.6,2.8c-1,0.3-2.1,0.3-3-0.2c-4.5-2.2-8.9-4.6-13.3-7c-1-0.6-2.3-0.6-3.3,0c-4.5,2.5-9.1,4.9-13.7,7.3
			C198.3,101.2,197,100.4,197.1,97.8z"/>
		<path class="st0" d="M183.4,177.8c2,3.6,3.9,7,5.8,10.3c0.9,1.7,0.2,3.9-1.6,4.8c-0.2,0.1-0.4,0.2-0.6,0.2
			c-17.1,3-30.5,12.4-41.7,25.1c-2.4,2.7-4.6,5.7-6.8,8.6c-1.3,1.7-2.9,2.6-4.9,1.5s-2-2.8-1.4-4.8c5.2-17.2,16.1-29.6,31.7-38
			C170,182.2,176.6,179.6,183.4,177.8z"/>
		<path class="st0" d="M13.6,135.2c3.4,0.5,6.9,0.9,10.2,1.5c1.2,0.3,2.5-0.1,3.3-1.2c1.9-2.2,3.9-4.4,6-6.4
			c0.7-0.7,2.1-1.7,2.7-1.4c0.9,0.7,1.5,1.7,1.7,2.8c0.6,2.9,1.1,5.8,1.5,8.7c0.1,1.4,1,2.5,2.3,2.9c2.6,1.1,5.3,2.3,7.8,3.7
			c0.9,0.7,1.7,1.4,2.4,2.3c-0.7,0.9-1.5,1.7-2.4,2.4c-2.4,1.4-4.9,2.7-7.4,3.9c-1.4,0.5-2.4,1.9-2.4,3.4c-0.3,2.9-0.6,5.9-1.1,8.8
			c-0.2,0.9-0.7,2.2-1.4,2.4s-1.9-0.4-2.6-1c-2.1-1.8-4-3.7-5.8-5.7c-1.2-1.7-3.4-2.3-5.4-1.6c-2.7,0.7-5.4,1.2-8.2,1.6
			c-0.8,0.1-2-0.1-2.3-0.6c-0.4-0.8-0.4-1.7-0.1-2.6c1.3-2.8,2.6-5.6,4.1-8.3c0.8-1.3,0.8-2.9-0.1-4.1c-1.6-2.6-3.1-5.4-4.5-8.1
			C11,136.5,11.7,135.2,13.6,135.2z"/>
		<path class="st0" d="M163.7,5.3c-0.8,3.3-1.5,6.7-2.5,10c-0.4,1.2-0.1,2.5,0.8,3.4c2.2,2.3,4.2,4.6,6.2,7c0.6,0.6,1.2,1.9,0.9,2.4
			c-0.6,0.8-1.4,1.3-2.4,1.5c-3,0.4-6,0.6-9.1,0.6c-1.4-0.1-2.8,0.8-3.4,2.1c-1.3,2.5-2.8,5-4.3,7.4c-0.6,0.9-1.8,2.1-2.5,2
			s-1.7-1.4-2.2-2.4c-1.2-2.5-2.2-5.1-3.2-7.7c-0.4-1.5-1.7-2.6-3.2-2.7c-3-0.5-5.9-1.2-8.9-2c-0.8-0.2-1.9-0.9-2.1-1.5
			c0-0.9,0.4-1.8,1.1-2.4c2.3-2.2,4.8-4.2,7.3-6.2c1-0.7,1.5-1.8,1.2-3c-0.5-3.1-0.8-6.3-1-9.5c-0.1-0.9,0.2-1.8,0.9-2.5
			c0.9-0.3,1.8-0.2,2.6,0.3c2.7,1.5,5.4,3.1,7.9,4.9c1.1,0.9,2.5,1,3.7,0.3c2.9-1.4,5.9-2.7,9-4C162.4,2.7,163.7,3.5,163.7,5.3z"/>
		<path class="st0" d="M117.9,39.6c3.6,1.3,6.7,2.4,9.9,3.3c1.2,0.4,2.1,1.2,2.7,2.3c2.4,3.6,1.5,6.7-0.1,10.3
			c-6.2,14-9.7,28.8-12.1,43.8c-0.9,5.9-1.5,11.8-2.4,17.8c-0.1,0.9-1.1,1.6-1.7,2.4c-0.6-0.8-1.6-1.5-1.7-2.3
			C110,96,109.5,74.9,114,53.9C115.1,49,116.7,44.1,117.9,39.6z"/>
		<path class="st0" d="M208.5,173.5c4.4,1.7,7.3-0.7,9.5-4.7c0.8-1.4,1.8-2.8,3-4c0.6-0.8,1.5-1.3,2.4-1.4c0.6,0,1.4,1.2,1.6,2
			c1,3,1.8,6.1,2.9,9.1c0.4,1,1.2,1.8,2.3,2.3c3,1.1,6.1,2,9.1,3c0.8,0.3,1.8,1.1,1.9,1.8c-0.1,0.9-0.6,1.7-1.3,2.2
			c-2.4,1.8-4.8,3.5-7.3,5c-1.5,0.7-2.4,2.3-2.2,4c0.2,2.7,0.2,5.4,0,8.1c-0.1,1.1-0.4,2.7-1.1,3s-2.2-0.3-3.1-0.9
			c-2.4-1.6-4.6-3.4-6.8-5.2c-1-1-2.4-1.2-3.7-0.6c-2.8,1-5.6,1.9-8.4,2.7c-1,0.3-2.5,0.4-3-0.1s-0.5-2.1-0.2-3
			c0.9-2.9,1.9-5.7,3-8.6c0.5-1.2,0.3-2.5-0.5-3.5c-2-2.5-3.8-5.1-5.6-7.8c-0.4-0.6-0.8-1.8-0.5-2.3c0.6-0.7,1.4-1.1,2.3-1.2
			C204.5,173.4,206.3,173.5,208.5,173.5z"/>
		<path class="st0" d="M64.5,158.8c5.9,8.4,10.8,17.6,14.4,27.3c5.1,13.2,8.4,26.9,10.9,40.7c0.3,1.5,0.1,2.8-1.6,3.2s-2.4-0.6-3-2
			c-4-8.6-7.7-17.3-12-25.7c-4.8-9.6-10.8-18.6-17.7-26.9c-1.4-1.5-2-3.7-1.6-5.7c0.1-2.8,1.9-5.2,4.4-6.2
			C60.5,162.5,62.3,160.5,64.5,158.8z"/>
	</g>
</g>
</svg>
