<?xml version="1.0" encoding="utf-8"?>
<!-- Generator: Adobe Illustrator 24.0.0, SVG Export Plug-In . SVG Version: 6.00 Build 0)  -->
<svg version="1.1" id="Layer_1" xmlns="http://www.w3.org/2000/svg" xmlns:xlink="http://www.w3.org/1999/xlink" x="0px" y="0px"
	 viewBox="0 0 43.4 54.5" style="enable-background:new 0 0 43.4 54.5;" xml:space="preserve">
<style type="text/css">
	.st0{fill:#FFFFFF;}
</style>
<title>Asset 1</title>
<g id="Layer_2_1_">
	<g id="Layer_1-2">
		<path class="st0" d="M12.2,52C9.7,46.5,8.6,40.4,9,34.3c0.6-8.5,3.7-16.6,8.8-23.4c0.5-0.5,1-1.1,1.5-1.5c1.3-0.9,3-0.6,3.9,0.5
			c1.1,1.2,1,3.1-0.1,4.3c-1.5,1.8-3.2,3.4-4.6,5.3c-6.8,9.5-9.2,20-6.4,31.5c0.1,0.2,0.1,0.5,0.1,0.7C12.3,51.7,12.3,51.8,12.2,52z
			"/>
		<path class="st0" d="M15.2,53c-1.3-6.4-0.6-13.1,2.1-19.1c2.8-6.1,7-11.5,12.3-15.6c0.5-0.4,1-0.7,1.6-1c1.4-0.8,3.2-0.2,4,1.2
			l0,0c0.8,1.4,0.4,3.1-1,4c-1,0.7-2.1,1.3-3.2,1.9c-10,6.7-15.8,15.9-15.9,28.2C15.3,52.8,15.2,52.9,15.2,53z"/>
		<path class="st0" d="M18.8,54.5c0.6-2.4,1.1-4.7,2-7c2-5.6,5.7-10.4,10.5-13.9c0.3-0.2,0.6-0.4,0.9-0.6c1.2-0.8,2.9-0.4,3.7,0.8
			c0.1,0.1,0.1,0.2,0.2,0.3c0.7,1.4,0,2.8-1.4,3.6c-2.5,1.4-5,2.9-7.3,4.6c-3.9,3.2-6.4,7.5-8.1,12.2L18.8,54.5z"/>
		<path class="st0" d="M7.8,47.2C5,44.2,3,40.5,1.9,36.6c-1-3.2-1.3-6.6-0.9-9.9c0.2-1.7,1.2-2.6,2.6-2.3c1.3,0.2,2.2,1.3,2,2.6
			c0,0.1-0.1,0.3-0.1,0.4C3.3,34.3,4.6,40.8,7.8,47.2z"/>
		<path class="st0" d="M21.6,5.4C23.2,4.1,23.9,2,23.5,0c1.9,1,3.6,1.2,5.6,0c-0.2,2.1,0,3.9,1.8,5.4c-2.1,0.2-3.9,1.5-4.7,3.4
			C25.5,6.8,23.7,5.4,21.6,5.4z"/>
		<path class="st0" d="M42.4,13.1L42.2,17l-3.7,1l-2.2-3.3l2.4-3L42.4,13.1z"/>
		<path class="st0" d="M2.6,21.3l-0.3-3.4l3-1.4l2.3,2.7l-1.8,2.9L2.6,21.3z"/>
		<path class="st0" d="M42.8,30.4l-0.5,3.2l-3.2,0.6l-1.6-2.9l2.3-2.4L42.8,30.4z"/>
	</g>
</g>
</svg>
